<?xml version="1.0" standalone="no"?>
<!DOCTYPE svg PUBLIC "-//W3C//DTD SVG 20010904//EN"
 "http://www.w3.org/TR/2001/REC-SVG-20010904/DTD/svg10.dtd">
<svg version="1.0" xmlns="http://www.w3.org/2000/svg"
 width="290.000000pt" height="290.000000pt" viewBox="0 0 290.000000 290.000000"
 preserveAspectRatio="xMidYMid meet">

<g transform="translate(0.000000,290.000000) scale(0.100000,-0.100000)"
fill="#000000" stroke="none">
<path d="M1290 2809 c-303 -32 -632 -192 -837 -408 -142 -149 -275 -354 -308
-473 -53 -195 -65 -250 -76 -357 -14 -147 -1 -314 37 -454 14 -51 29 -109 33
-129 22 -103 143 -300 278 -450 114 -127 213 -204 383 -296 236 -128 540 -184
815 -151 239 28 437 103 651 246 178 118 398 380 461 550 100 269 117 350 117
563 0 213 -17 292 -118 565 -55 147 -260 401 -421 520 -294 217 -645 312
-1015 274z m325 -50 c96 -12 267 -55 356 -89 144 -57 341 -190 449 -303 227
-240 321 -432 367 -752 30 -213 -5 -474 -94 -692 -67 -166 -267 -413 -423
-524 -401 -285 -872 -345 -1329 -169 -85 33 -225 112 -316 180 -192 142 -384
412 -458 645 -70 218 -70 566 0 790 54 172 188 388 328 531 279 283 715 432
1120 383z"/>
<path d="M503 2318 c-96 -102 -223 -305 -273 -441 -134 -364 -90 -779 118
-1101 108 -167 232 -294 389 -398 253 -168 585 -247 880 -208 142 19 335 77
435 131 145 77 332 214 347 254 2 5 27 35 56 66 95 104 215 312 250 434 67
236 67 544 -1 781 -18 64 -100 231 -151 306 -49 74 -155 197 -169 197 -24 2
-31 -24 -23 -79 22 -156 -1 -397 -55 -562 -73 -223 -236 -455 -393 -560 -230
-154 -454 -186 -698 -101 -69 25 -86 34 -198 108 -71 47 -205 185 -233 240
-12 22 -40 75 -64 118 -53 99 -96 216 -123 337 -17 76 -21 129 -21 265 0 97 4
186 11 207 10 33 9 37 -11 42 -11 3 -23 6 -26 6 -3 0 -24 -19 -47 -42z m22
-205 c0 -291 73 -537 221 -751 24 -35 44 -66 44 -70 0 -11 148 -154 190 -183
255 -183 535 -218 799 -101 127 56 220 123 306 218 135 152 215 289 268 459
43 138 49 180 51 376 l1 190 33 -38 c215 -250 317 -613 268 -943 -72 -474
-429 -876 -896 -1009 -660 -187 -1339 172 -1550 820 -95 289 -70 619 66 891
48 95 183 298 198 298 1 0 1 -71 1 -157z"/>
<path d="M1375 2137 c-3 -7 -4 -143 -3 -302 l3 -290 29 -3 c15 -2 39 -1 52 2
24 6 24 8 24 126 l0 120 100 0 100 0 0 50 0 50 -100 0 -100 0 0 80 0 80 104 0
c102 0 104 0 110 25 4 14 4 36 0 50 l-6 25 -154 0 c-115 0 -156 -3 -159 -13z"/>
</g>
</svg>
